<?xml version="1.0" standalone="no"?>
<!DOCTYPE svg PUBLIC "-//W3C//DTD SVG 20010904//EN"
 "http://www.w3.org/TR/2001/REC-SVG-20010904/DTD/svg10.dtd">
<svg version="1.0" xmlns="http://www.w3.org/2000/svg"
 width="300.000000pt" height="300.000000pt" viewBox="0 0 300.000000 300.000000"
 preserveAspectRatio="xMidYMid meet">
<metadata>
Created by potrace 1.10, written by Peter Selinger 2001-2011
</metadata>
<g transform="translate(0.000000,300.000000) scale(0.100000,-0.100000)"
fill="#000000" stroke="none">
<path d="M1011 2983 c-22 -18 -22 -19 -19 -405 l3 -388 -37 44 c-23 26 -57 52
-89 65 -48 21 -62 22 -267 19 -242 -3 -262 -8 -329 -77 -41 -42 -97 -153 -119
-236 -21 -78 -31 -373 -15 -432 7 -25 25 -53 46 -72 30 -26 44 -31 86 -31 l50
0 -7 -35 c-4 -25 -1 -43 10 -60 l16 -25 283 0 c207 0 286 3 295 12 8 8 12 66
12 194 l0 182 128 -72 c116 -65 132 -71 184 -71 62 0 98 19 132 71 l20 29 684
-3 c606 -2 687 -1 708 13 l24 15 0 623 c0 342 -4 627 -8 633 -4 6 -18 15 -31
19 -21 6 -23 5 -17 -11 12 -29 20 -94 11 -94 -4 0 -16 11 -27 25 l-19 25 -812
0 c-447 0 -817 -4 -823 -8 -5 -4 -18 -18 -27 -31 l-16 -24 -7 28 c-4 17 -1 39
9 61 19 39 5 47 -32 17z m1702 -638 l2 -555 -655 0 -655 0 -24 44 -23 45 136
200 c75 110 138 206 141 213 2 7 -12 23 -32 36 -30 19 -38 21 -48 10 -7 -7
-72 -102 -144 -210 -73 -109 -135 -198 -139 -198 -4 0 -45 22 -92 48 l-85 48
-3 439 -2 440 810 -2 810 -3 3 -555z m-1253 -241 c-141 -210 -144 -218 -121
-269 10 -22 30 -51 44 -64 l26 -23 -52 -49 c-29 -26 -58 -48 -66 -49 -7 0 -2
9 12 20 14 11 31 36 37 54 20 61 -9 103 -116 173 -15 10 -12 10 14 1 50 -16
70 4 207 205 66 96 122 174 124 172 2 -2 -47 -79 -109 -171z m-1139 104 c-23
-23 -58 -74 -77 -113 -19 -38 -32 -59 -28 -45 14 53 64 138 99 168 52 46 56
39 6 -10z m605 2 c27 -22 52 -40 56 -40 13 0 48 43 48 59 0 14 1 14 10 1 5 -8
10 -57 10 -109 l0 -93 39 -39 c43 -43 43 -46 1 -24 -18 9 -57 58 -103 128 -41
63 -87 124 -102 135 -15 12 -23 22 -17 22 5 0 32 -18 58 -40z m-117 10 c49
-14 74 -41 156 -165 l72 -110 119 -63 c65 -35 127 -73 137 -84 36 -42 6 -108
-50 -108 -15 0 -91 35 -170 78 -143 77 -143 77 -143 112 0 20 -5 41 -12 48
-16 16 -53 15 -67 -1 -7 -9 -12 -95 -13 -246 l-3 -232 -213 -2 -212 -2 0 250
c0 182 -3 254 -12 263 -16 16 -65 15 -75 0 -4 -7 -10 -96 -13 -197 -4 -161 -7
-185 -22 -195 -13 -8 -23 -8 -35 0 -16 10 -18 31 -21 167 -3 188 11 269 65
369 41 77 72 106 124 118 49 12 348 12 388 0z m170 -451 c24 -15 24 -15 -14
-11 -31 4 -41 0 -56 -19 -16 -21 -19 -44 -19 -175 0 -155 -5 -174 -42 -174
-24 0 -23 6 7 42 25 29 25 31 25 229 l0 200 38 -38 c20 -22 48 -46 61 -54z
m1789 9 c-3 -29 -7 -33 -37 -36 l-34 -4 29 36 c37 44 46 45 42 4z m-2373 -348
c32 -30 32 -42 -2 -38 -22 2 -29 10 -34 36 -8 37 -44 82 -68 82 -11 1 -7 7 12
21 15 12 35 35 45 53 l17 31 3 -81 c2 -71 6 -84 27 -104z m-153 97 c8 -4 7 -6
-4 -6 -19 -1 -58 44 -58 68 0 9 11 0 25 -21 13 -20 30 -38 37 -41z"/>
<path d="M2460 2330 l0 -420 50 0 50 0 0 420 0 420 -50 0 -50 0 0 -420z"/>
<path d="M1820 2158 l0 -248 50 0 50 0 0 248 0 247 -50 0 -50 0 0 -247z"/>
<path d="M2200 2140 l0 -230 50 0 50 0 0 230 0 230 -50 0 -50 0 0 -230z"/>
<path d="M2015 2070 l0 -160 48 0 47 0 0 160 0 160 -47 0 -48 0 0 -160z"/>
<path d="M527 2906 c-108 -40 -180 -141 -180 -256 -1 -113 55 -199 161 -248
44 -20 65 -23 120 -20 78 5 126 25 178 76 129 125 93 350 -71 434 -51 27 -156
34 -208 14z m-48 -93 c-22 -20 -49 -53 -60 -72 -14 -26 -18 -29 -13 -11 9 32
38 74 71 100 44 34 45 22 2 -17z m287 5 c34 -30 71 -94 61 -104 -2 -3 -10 9
-17 25 -7 17 -32 49 -56 71 -52 47 -41 54 12 8z m-62 -21 c47 -26 86 -93 86
-146 0 -50 -38 -121 -78 -148 -47 -31 -109 -39 -157 -18 -52 21 -74 42 -96 90
-54 118 27 245 156 245 33 0 63 -8 89 -23z m-227 -313 c29 -28 32 -34 13 -24
-38 20 -89 89 -89 120 0 8 9 -2 19 -22 11 -20 37 -54 57 -74z m336 56 c-6 -23
-77 -90 -95 -90 -7 0 3 11 22 25 19 14 43 39 53 55 22 35 27 38 20 10z"/>
<path d="M395 1246 c-213 -99 -182 -411 47 -466 203 -50 373 174 273 358 -64
118 -200 164 -320 108z m-30 -87 c-20 -23 -43 -55 -51 -73 -7 -17 -13 -25 -14
-18 0 26 32 82 62 107 44 37 45 30 3 -16z m284 -5 c23 -26 41 -54 41 -62 0 -9
-13 4 -28 29 -16 24 -39 52 -53 61 -13 9 -19 17 -12 17 6 1 30 -20 52 -45z
m-75 -2 c71 -41 96 -135 54 -206 -79 -135 -280 -78 -280 79 0 118 122 186 226
127z m116 -205 c0 -17 -68 -97 -82 -97 -5 0 9 21 31 46 23 26 41 51 41 55 0 5
2 9 5 9 3 0 5 -6 5 -13z m-302 -85 l27 -23 -33 18 c-18 10 -42 32 -53 49 -27
45 -23 54 6 14 14 -19 38 -45 53 -58z"/>
<path d="M1392 1244 c-186 -93 -184 -349 3 -447 29 -15 58 -21 105 -21 166 0
283 156 236 315 -43 149 -207 222 -344 153z m274 -104 c36 -53 29 -59 -10 -8
-19 24 -45 52 -58 62 -20 15 -19 15 11 -1 18 -10 44 -34 57 -53z m-279 39
c-15 -12 -39 -38 -52 -57 -14 -20 -25 -30 -25 -21 0 20 73 99 91 99 8 0 2 -10
-14 -21z m193 -28 c98 -68 92 -212 -10 -263 -101 -51 -220 19 -220 129 0 124
133 201 230 134z m-268 -116 c-6 -67 4 -91 56 -147 26 -28 38 -46 27 -40 -27
14 -59 50 -79 89 -16 32 -23 143 -8 143 4 0 6 -20 4 -45z m384 -70 c-7 -34
-57 -99 -89 -116 -14 -7 -6 5 19 32 55 58 64 77 66 146 1 53 2 54 5 13 3 -24
2 -58 -1 -75z"/>
<path d="M2419 1256 c-94 -33 -162 -128 -163 -225 0 -73 18 -125 62 -173 147
-163 410 -76 429 141 17 180 -159 318 -328 257z m-28 -74 c-14 -9 -37 -37 -53
-61 -32 -52 -38 -44 -7 9 22 37 57 70 74 69 6 0 -1 -8 -14 -17z m247 -7 c29
-25 62 -81 62 -107 0 -7 -9 6 -21 29 -11 24 -36 56 -55 73 -41 36 -28 41 14 5z
m-51 -28 c43 -29 65 -70 65 -123 0 -156 -202 -212 -279 -78 -50 87 -13 185 84
220 45 16 86 10 130 -19z m92 -223 c-13 -25 -40 -55 -58 -67 -33 -20 -32 -18
11 24 27 28 49 60 53 80 5 19 10 28 13 21 2 -7 -7 -33 -19 -58z m-294 -52 c43
-38 30 -43 -15 -6 -32 27 -60 73 -60 96 1 7 9 -3 20 -23 10 -20 35 -50 55 -67z"/>
<path d="M435 694 c-90 -14 -206 -67 -267 -122 -95 -86 -118 -160 -118 -383 0
-117 3 -159 13 -167 20 -17 853 -17 874 -1 12 11 14 41 11 193 -3 171 -5 184
-30 238 -49 105 -147 185 -274 223 -53 16 -163 25 -209 19z m-176 -123 c-54
-35 -89 -72 -124 -131 -15 -26 -24 -35 -20 -20 16 58 79 132 140 163 49 26 52
19 4 -12z m383 2 c56 -21 86 -40 130 -83 70 -68 78 -96 78 -262 l0 -128 -352
0 -353 0 3 127 c3 154 12 192 59 244 50 56 84 78 161 105 94 33 179 32 274 -3z
m119 -2 c24 -15 54 -39 65 -52 25 -27 64 -98 64 -114 -1 -5 -10 8 -22 30 -26
52 -72 100 -127 136 -25 16 -40 29 -35 29 6 0 30 -13 55 -29z m132 -530 c-4
-3 -186 -4 -403 -1 l-395 5 -3 38 c-2 20 0 37 3 37 3 0 18 -14 32 -30 l25 -30
346 0 c420 0 391 -10 394 139 2 90 3 88 5 -28 2 -68 0 -127 -4 -130z"/>
<path d="M1428 690 c-76 -13 -143 -39 -205 -79 -139 -90 -172 -176 -173 -447
0 -97 3 -134 13 -142 21 -18 867 -17 879 0 5 7 7 96 6 198 -3 179 -4 187 -31
241 -54 110 -196 206 -337 229 -73 11 -85 11 -152 0z m-138 -100 c0 -5 -7 -10
-16 -10 -23 0 -117 -99 -142 -150 -23 -47 -31 -42 -10 7 21 48 70 104 117 134
53 33 51 32 51 19z m362 -19 c82 -32 141 -81 172 -143 24 -48 26 -61 26 -190
l0 -138 -350 0 -350 0 0 126 c0 70 5 144 12 166 23 79 115 156 233 194 59 20
188 12 257 -15z m170 -48 c20 -21 44 -55 53 -77 21 -50 14 -57 -8 -7 -16 35
-95 118 -142 149 -11 7 -2 4 20 -7 22 -11 57 -37 77 -58z m-322 -463 l348 0
25 29 c14 17 28 27 31 24 8 -9 7 -56 -2 -68 -4 -6 -148 -9 -404 -7 l-398 3 -6
24 c-3 14 -3 32 0 41 5 13 11 10 32 -15 l26 -31 348 0z"/>
<path d="M2423 689 c-170 -28 -324 -149 -351 -277 -18 -80 -25 -364 -10 -384
12 -16 47 -18 442 -18 255 -1 433 3 438 8 6 6 8 91 6 203 -3 187 -4 196 -29
244 -57 107 -177 191 -316 220 -75 16 -103 17 -180 4z m-137 -100 c-49 -26
-119 -96 -145 -145 -11 -22 -20 -32 -21 -23 0 32 62 109 122 149 33 22 65 40
72 40 6 -1 -6 -10 -28 -21z m343 -10 c126 -43 202 -118 221 -218 5 -29 10
-100 10 -157 l0 -104 -356 0 -356 0 4 143 c5 160 17 197 83 255 106 94 261
126 394 81z m129 -3 c73 -46 143 -141 142 -193 -1 -10 -7 -2 -14 19 -20 56
-79 130 -130 162 -25 16 -46 30 -46 32 0 8 12 3 48 -20z m-260 -516 l346 0 34
33 33 32 -3 -44 -3 -43 -395 1 c-428 2 -423 1 -413 56 l5 24 25 -30 25 -29
346 0z"/>
</g>
</svg>
